<svg width="534" height="562" viewBox="0 0 534 562" fill="none" xmlns="http://www.w3.org/2000/svg">
<rect width="534" height="562" fill="white"/>
<path d="M90.7155 211.429C81.2361 288.42 73.0703 366.464 82.3017 443.892C84.9822 466.376 88.7944 490.256 97.0636 511.555C98.37 514.92 98.5195 516.437 102.303 515.536C114.478 512.637 126.298 508.768 138.579 506.164C176.69 498.085 215.575 493.343 254.357 489.941C285.421 487.217 316.772 485.403 347.967 486.314C358.062 486.609 368.239 487.12 378.196 487.12" stroke="black" stroke-width="3" stroke-linecap="round"/>
<path d="M325.597 215.056C329.577 263.612 335.226 312.006 339.2 360.56C341.478 388.379 342.628 407.557 343.634 434.823C344.169 449.311 343.31 464.378 345.397 478.807C346.264 484.795 348.433 505.623 357.338 504.351" stroke="black" stroke-width="3" stroke-linecap="round"/>
<path d="M368.22 492.561C386.186 475.366 405.767 460.015 424.85 444.094C430.723 439.194 437.202 434.547 442.585 429.08C446.534 425.068 443.849 426.3 444.398 422.732" stroke="black" stroke-width="3" stroke-linecap="round"/>
<path d="M422.633 195.105C422.758 219.636 422.88 244.151 424.044 268.663C425.971 309.257 431.422 349.371 434.675 389.832C435.833 404.24 436.142 418.513 434.826 432.909C434.27 438.984 433.642 441.337 430.795 445.404" stroke="black" stroke-width="3" stroke-linecap="round"/>
<path d="M74.3916 210.522C119.483 221.74 164.95 233.281 211.532 235.915C252.011 238.203 294.92 234.066 334.515 225.284C356.415 220.426 377.781 213.863 398.802 206.088C403.428 204.378 418.752 201.816 419.913 196.012" stroke="black" stroke-width="3" stroke-linecap="round"/>
<path d="M76.2053 217.777C97.4022 209.071 117.066 196.663 136.261 184.273C146.311 177.786 158.471 168.365 168.707 164.271" stroke="black" stroke-width="3" stroke-linecap="round"/>
<path d="M178.683 170.619C264.738 172.327 350.564 181.307 436.236 188.757" stroke="black" stroke-width="3" stroke-linecap="round"/>
<path d="M239.444 196.012C229.997 194.904 210.022 194.929 207.904 208.406C206.589 216.779 216.683 222.769 222.414 224.83C232.58 228.487 247.107 228.543 257.48 226.14C260.675 225.4 275.745 220.543 276.122 213.444C276.508 206.149 261.495 201.651 258.69 200.848C250.216 198.425 236.361 197.137 227.352 197.019C188.882 196.518 234.514 197.36 214.958 198.732" stroke="black" stroke-width="3" stroke-linecap="round"/>
<path d="M102.505 102.603C129.947 121.379 153.526 145.007 180.497 164.271" stroke="#43AAFF" stroke-width="3" stroke-linecap="round"/>
<path d="M223.12 89C227.133 112.592 231.87 136.108 239.444 158.83" stroke="#43AAFF" stroke-width="3" stroke-linecap="round"/>
<path d="M343.735 97.162C327.721 119.483 313.014 142.025 298.391 165.178" stroke="#43AAFF" stroke-width="3" stroke-linecap="round"/>
<path d="M113.387 406.408C108.376 419.193 101.794 433.185 100.338 447.016C99.0082 459.652 104.04 421.319 110.163 410.187C113.738 403.685 120.036 416.326 121.348 418.5C125.732 425.768 130.144 433.556 132.331 441.827C132.742 443.381 133.17 445.022 132.936 446.613C132.442 449.956 129.804 446.317 128.804 447.217" stroke="black" stroke-width="3" stroke-linecap="round"/>
<path d="M98.8772 431.8C106.956 430.291 114.306 429.599 122.456 429.987" stroke="black" stroke-width="3" stroke-linecap="round"/>
<path d="M143.314 428.173C146.025 432.937 147.99 437.891 149.763 443.086C150.422 445.016 151.031 446.965 151.577 448.93C152.444 452.046 151.509 450.492 151.174 448.527C149.508 438.751 154.974 428.905 164.072 438.249C172.068 446.461 164.739 436.193 173.04 437.342C177.892 438.014 182.811 444.091 185.031 446.31" stroke="black" stroke-width="3" stroke-linecap="round"/>
<path d="M212.237 436.335C208.992 435.631 198.459 432.772 200.246 440.265C201.636 446.092 207.051 442.989 209.013 439.761C211.932 434.956 210.68 435.414 215.361 439.66C220.166 444.019 223.882 445.186 229.468 447.217" stroke="black" stroke-width="3" stroke-linecap="round"/>
<path d="M220.399 429.987C226.368 429.343 237.178 426.528 242.87 429.886C247.552 432.648 238.417 441.945 237.328 444.396C232.456 455.356 253.889 450.752 258.488 448.124" stroke="black" stroke-width="3" stroke-linecap="round"/>
<path d="M263.022 431.8C262.84 435.489 261.819 439.358 264.534 442.582C265.911 444.218 274.254 446.744 272.746 441.423C271.963 438.66 268.164 436.356 265.945 435.327C264.71 434.755 263.375 434.262 262.015 434.219C255.866 434.024 262.757 435.641 258.488 437.242" stroke="black" stroke-width="3" stroke-linecap="round"/>
<path d="M285.694 427.266C287.077 433.795 288.342 440.339 289.171 446.965C289.693 451.141 288.3 436.189 292.244 434.723C299.352 432.079 307.984 442.306 310.331 447.822C312.282 452.407 304.39 445.833 303.832 445.404" stroke="black" stroke-width="3" stroke-linecap="round"/>
<path d="M112.48 464.448C133.749 471.006 156.661 473.516 178.884 472.711C188.968 472.346 199.315 471.109 208.811 467.521C214.838 465.245 214.659 463.427 218.585 459.914" stroke="black" stroke-width="3" stroke-linecap="round"/>
</svg>
