<svg width="204" height="135" viewBox="0 0 204 135" fill="none" xmlns="http://www.w3.org/2000/svg">
<path d="M2.29834 133.125C10.9125 123.719 19.7995 114.553 29.0009 105.717C30.1954 104.57 40.5693 94.673 43.1079 93.323C50.9893 89.1315 55.359 101.646 58.1722 105.918C62.9112 113.116 67.442 121.319 76.1082 124.761C87.0255 129.098 93.6173 123.954 101.803 116.65C113.278 106.411 126.614 87.7827 135.358 75.9411C148.247 58.485 159.769 40.4289 171.885 22.4856" stroke="#43AAFF" stroke-width="3" stroke-linecap="round"/>
<path d="M124.727 21.5787C138.902 16.4186 153.01 10.951 167.401 6.41363C172.131 4.92213 185.044 0.0744942 191.635 1.92961C196.908 3.41406 196.923 9.89858 197.58 13.7694C199.426 24.6559 201.812 40.117 201.812 49.6919" stroke="#43AAFF" stroke-width="3" stroke-linecap="round"/>
</svg>
