<svg width="1056" height="869" viewBox="0 0 1056 869" fill="none" xmlns="http://www.w3.org/2000/svg">
<path d="M383.969 289.512C346.218 299.893 411.006 343.078 412.263 305.68C413.147 279.381 373.252 283.39 357.985 286.914" stroke="#43AAFF" stroke-width="3" stroke-linecap="round"/>
<path d="M391.764 263.528C363.06 260.87 329.766 270.649 315.257 297.596C288.034 348.151 379.797 358.014 409.087 356.781C427.413 356.01 453.293 351.632 462.787 333.107C472.136 314.864 457.073 293.346 443.155 282.727C412.493 259.336 376.885 257.751 342.395 268.725" stroke="#43AAFF" stroke-width="3" stroke-linecap="round"/>
<path d="M503.495 297.307C542.176 275.884 584.247 268.004 628.506 268.292C636.814 268.346 659.177 267.347 667.481 273.344C668.722 274.24 647.645 278.9 646.406 279.118" stroke="black" stroke-width="3" stroke-linecap="round"/>
<path d="M503.495 302.504C541.205 309.756 593.503 325.803 630.527 310.01C640.189 305.888 660.958 295.367 663.728 283.593C665.025 278.084 648.596 279.301 646.406 279.118" stroke="black" stroke-width="3" stroke-linecap="round"/>
<path d="M248.854 133.609C239.444 204.183 257.534 280.468 269.496 349.996C275.929 387.389 280.628 421.144 295.624 456.386C298.758 463.749 302.438 470.878 306.018 478.039C313.283 492.568 337.718 493.7 351.49 499.115C417.292 524.988 484.282 552.755 545.646 588.181C559.341 596.088 578.979 619.381 595.015 612C638.196 592.123 682.123 572.83 727.821 559.455C738.514 556.325 747.885 559.326 749.33 549.206C754.27 514.624 760.197 480.219 764.632 445.559C771.51 391.808 783.709 337.71 762.467 286.047C749.889 255.457 734.063 225.136 711.942 200.301C686.979 172.275 656.997 148.705 629.516 123.216C616.178 110.844 603.534 97.6085 589.674 85.8279C575.79 74.0259 569.582 77.4335 550.266 79.0432" stroke="black" stroke-width="3" stroke-linecap="round"/>
<path d="M516.487 458.407C531.781 448.335 547.734 444.873 565.856 441.661C601.428 435.356 637.695 430.869 673.833 429.824C705.03 428.923 674.398 431.242 661.996 432.423" stroke="black" stroke-width="3" stroke-linecap="round"/>
<path d="M516.487 461.005C566.873 461.005 617.3 461.762 667.481 456.386C675.303 455.548 698.68 454.129 690.867 453.21C682.997 452.284 675.073 451.539 667.193 450.611" stroke="black" stroke-width="3" stroke-linecap="round"/>
<path d="M469.716 266.127C480.801 302.3 485.017 338.603 485.017 376.413C485.017 393.748 484.637 411.138 482.708 428.381C482.314 431.903 482.238 442.974 479.532 446.281C477.158 449.182 481.461 437.65 485.017 436.465C507.906 428.835 534.638 430.059 558.349 425.205C564.071 424.034 589.274 422.872 583.467 412.502C573.893 395.405 556.68 383.627 543.625 369.484C515.268 338.764 486.258 302.127 469.716 263.528" stroke="black" stroke-width="3" stroke-linecap="round"/>
<path d="M287.829 393.447C337.994 415.35 389.672 436.547 435.071 467.501C469.711 491.12 495.084 522.913 526.88 549.35C537.525 558.2 550.118 567.245 557.916 578.943C562.591 585.954 612.819 563.292 617.823 561.187C655.569 545.313 698.241 512.83 741.535 519.324C743.557 519.627 739.972 493.369 739.947 489.876C739.697 454.286 734.186 412.844 744.134 378.29C746.948 368.514 751.602 359.333 753.95 349.419C757.781 333.241 747.424 340.04 737.349 341.48" stroke="#43AAFF" stroke-width="3" stroke-linecap="round"/>
<path d="M235.862 154.396C253.336 147.458 271.078 142.394 289.273 137.651C301.998 134.334 324.916 123.896 338.642 126.391C340.934 126.808 335.983 134.42 335.755 135.053C333.355 141.7 344.812 147.311 348.891 149.921C381.255 170.634 413.631 193.3 436.37 224.841C448.7 241.944 468.974 231.943 488.482 229.172C501.259 227.357 522.527 228.372 534.964 223.398C540.635 221.129 541.365 213.373 543.048 208.385C548.35 192.669 553.742 176.929 559.36 161.325C564.796 146.225 579.972 105.027 599.49 105.027C610.001 105.027 620.487 104.854 630.96 103.872C631.99 103.776 608.807 106.729 602.233 107.625" stroke="#43AAFF" stroke-width="3" stroke-linecap="round"/>
<path d="M230.665 146.601C262.782 127.018 252.595 92.2114 269.063 60.8546C279.554 40.878 313.686 31.8402 334.023 27.0756C372.216 18.1275 411.917 12.7062 450.805 7.73213C494.253 2.17485 539.93 -7.19692 576.249 24.4772C597.241 42.7841 615.74 67.3271 621.288 95.0666C626.525 121.253 613.095 99.6067 604.832 89.4367" stroke="black" stroke-width="3" stroke-linecap="round"/>
<path d="M417.748 515.571C407.089 549.681 403.056 586.114 389.166 619.217C375.373 652.09 340.481 675.517 311.792 694.282C276.695 717.238 239.816 737.775 205.836 762.417C194.072 770.948 184.4 781.569 173.212 790.71C160.151 801.382 172.99 774.648 173.501 772.81" stroke="black" stroke-width="3" stroke-linecap="round"/>
<path d="M721.759 507.776C721.09 506.898 707.242 485.221 714.252 490.453C772.378 533.843 828.009 580.705 889.498 619.506C939.328 650.95 989.089 666.334 1044.54 682.733C1066.3 689.17 1043.31 681.823 1036.16 679.269" stroke="black" stroke-width="3" stroke-linecap="round"/>
<path d="M677.586 733.835C654.449 727.057 628.184 722.487 609.307 742.063C574.946 777.696 595.904 827.926 643.519 835.46C677.811 840.887 761.793 818.222 721.47 769.346C699.528 742.75 667.085 740.915 636.012 739.032" stroke="#43AAFF" stroke-width="3" stroke-linecap="round"/>
<path d="M610.028 681.867C555.743 678.809 511.611 717.789 529.767 775.986C552.773 849.728 670.647 879.414 737.638 861.733C762.142 855.265 797.994 838.67 796.534 807.744C795.125 777.893 761.443 751.558 739.081 737.299C679.341 699.206 601.109 685.358 532.077 692.261" stroke="black" stroke-width="3" stroke-linecap="round"/>
<path d="M295.624 744.228C321.297 735.912 346.589 727.204 371.266 716.224C381.101 711.847 411.334 702.654 400.57 702.654C398.882 702.654 436.241 704.016 445.176 705.686C473.524 710.984 499.649 720.673 523.704 736.433C539.527 746.8 522.413 739.705 511.29 736.433" stroke="black" stroke-width="3" stroke-linecap="round"/>
<path d="M659.397 713.048C671.311 704.383 684.045 702.1 697.507 696.303C717.315 687.772 735.311 675.716 752.073 662.235C763.579 652.982 773.404 639.907 785.563 631.632C798.654 622.723 823.897 625.901 838.108 625.858C862.277 625.784 886.413 627.03 910.574 627.301C929.092 627.509 900.677 621.21 895.85 619.506" stroke="black" stroke-width="3" stroke-linecap="round"/>
<path d="M718.447 754.829C747.842 738.314 776.907 718.68 808.616 707.582C819.025 703.938 833.79 706.405 844.168 706.529C870.125 706.838 896.014 707.692 921.94 708.985C930.896 709.432 940.398 712.483 948.838 709.453C951.305 708.567 945.473 704.803 945.798 702.202" stroke="#43AAFF" stroke-width="3" stroke-linecap="round"/>
<path d="M741.603 805.352C768.714 795.493 796.407 787.726 824.404 780.792C829.38 779.56 840.557 780.133 838.438 773.775" stroke="#43AAFF" stroke-width="3" stroke-linecap="round"/>
<path d="M838.438 780.09C878.246 776.325 918.802 782.669 958.545 785.119C968.875 785.756 979.615 786.73 990.005 786.406C992.756 786.32 976.472 780.515 975.269 780.09" stroke="#43AAFF" stroke-width="3" stroke-linecap="round"/>
<path d="M611.087 813.772C623.029 813.473 619.783 811.499 609.918 806.989C594.645 800.007 579.561 792.746 564.541 785.236C560.29 783.111 538.974 776.24 545.829 771.67" stroke="#43AAFF" stroke-width="3" stroke-linecap="round"/>
<path d="M531.094 784.301C505.197 784.301 479.316 784.144 453.439 785.353C447.518 785.63 426.274 789.38 423.734 784.301" stroke="#43AAFF" stroke-width="3" stroke-linecap="round"/>
<path d="M606.877 754.829C589.445 740.385 580.75 718.177 564.775 702.202" stroke="#43AAFF" stroke-width="3" stroke-linecap="round"/>
<path d="M552.145 712.727C508.059 707.829 459.501 730.52 417.418 719.043" stroke="#43AAFF" stroke-width="3" stroke-linecap="round"/>
<path d="M282.966 238.845C295.604 250.933 310.688 260.656 321.647 274.416C323.431 276.656 328.991 282.915 326.498 281.506C324.006 280.097 322.007 277.675 319.906 275.784" stroke="#43AAFF" stroke-width="3" stroke-linecap="round"/>
<path d="M149.759 242.203C189.913 245.812 230.457 241.095 270.715 243.882C277.006 244.317 283.268 245.065 289.558 245.499C290.87 245.589 276.35 243.634 274.011 243.322" stroke="#43AAFF" stroke-width="3" stroke-linecap="round"/>
<path d="M153.117 225.412C157.023 219.481 159.742 218.914 166.736 221.245C170.967 222.656 178.852 229.207 183.341 228.646C187.067 228.18 187.411 223.34 191.923 224.728C197.529 226.453 200.912 230.348 207.221 228.024C212.065 226.239 211.958 224.823 216.674 226.967C221.791 229.293 226.868 226.465 232.096 226.407C242.066 226.296 249.61 230.627 257.22 236.606" stroke="#43AAFF" stroke-width="3" stroke-linecap="round"/>
<path d="M183.341 112.354C240.788 143.095 308.654 175.01 344.657 232.19C348.084 237.634 351.6 243.222 354.607 248.919C357.762 254.897 354.413 246.292 353.487 244.441" stroke="#43AAFF" stroke-width="3" stroke-linecap="round"/>
<path d="M2 122.428C16.1614 118.232 32.4363 119.979 46.962 119.443C79.2313 118.252 111.409 115.497 143.54 112.354C155.622 111.172 167.632 109.013 179.734 108.125C186.897 107.6 194.215 107.557 182.221 106.757" stroke="#43AAFF" stroke-width="3" stroke-linecap="round"/>
<path d="M4.2388 94.4437C5.2199 88.2628 6.18624 76.2294 14.562 75.4141C18.7149 75.0098 22.5245 78.1389 26.129 79.5807C31.9959 81.9274 36.9283 81.1321 42.0492 77.5285C44.166 76.0389 47.0999 72.3706 50.1337 72.6778C53.8173 73.0508 56.2411 77.0441 59.9594 77.7772C65.8086 78.9306 69.5054 74.8404 73.0189 70.9366C77.1727 66.3212 77.2828 66.5197 80.4815 72.0559C82.3399 75.2724 85.085 82.8771 89.3122 83.9339C93.0876 84.8777 96.4632 78.5107 99.6354 77.4041C107.537 74.6477 115.217 94.4488 119.598 88.6602C121.657 85.9393 122.88 81.1861 126.749 80.2648C130.854 79.2874 134.823 83.7708 138.441 84.8045C149.189 87.8754 159.945 82.6501 171.027 86.608" stroke="#43AAFF" stroke-width="3" stroke-linecap="round"/>
<path d="M4.2388 40.7131C5.73322 34.86 8.18563 27.43 15.868 28.5864C29.1703 30.5889 39.819 43.823 53.9893 37.4793C58.6806 35.3792 58.6868 33.3756 64.0638 32.753C71.2583 31.92 77.6584 35.7606 84.2128 37.8525C95.6312 41.4966 96.7513 30.7349 106.476 29.5193C115.065 28.4457 118.968 38.7903 128.802 34.6809C131.608 33.508 133.557 31.4762 136.637 30.8874C142.672 29.7338 147.828 33.7407 152.868 36.2356C157.066 38.3134 160.325 40.2428 165.182 39.8425C169.404 39.4945 173.252 34.7569 177.246 34.9918C178.819 35.0844 179.393 37.2035 179.734 38.2256C181.043 42.1525 179.51 38.9468 178.863 39.5937" stroke="#43AAFF" stroke-width="3" stroke-linecap="round"/>
<path d="M298.778 358.997C305.46 358.302 312.12 358.129 318.831 357.888C321.82 357.781 326.362 357.609 329.512 357.384C334.803 357.006 327.744 357.416 329.612 357.183" stroke="#43AAFF" stroke-width="3" stroke-linecap="round"/>
<path d="M294.244 372.6C307.838 371 321.443 369.498 335.054 368.065" stroke="#43AAFF" stroke-width="3" stroke-linecap="round"/>
<path d="M296.058 386.203C305.485 385.338 314.86 384.084 324.272 383.079C327.745 382.708 332.952 382.553 334.147 380.762" stroke="#43AAFF" stroke-width="3" stroke-linecap="round"/>
<path d="M581.007 281.85C578.395 284.078 574.013 287.624 575.452 291.771C578.221 299.753 593.058 301.272 599.79 300.302C612.287 298.503 597.366 287.837 593.706 286.017C586.906 282.635 582.018 283.535 575.055 284.231" stroke="#43AAFF" stroke-width="3" stroke-linecap="round"/>
</svg>
