<svg width="534" height="562" viewBox="0 0 534 562" fill="none" xmlns="http://www.w3.org/2000/svg">
<rect width="534" height="562" fill="white"/>
<path d="M359.025 288.251C362.873 271.394 362.413 257.329 354.994 241.194C339.864 208.286 314.6 179.934 293.83 150.607C286.683 140.514 278.691 130.344 275.844 117.909C272.083 101.482 281.345 88.6105 294.637 79.8703C323.207 61.0828 364.43 58.862 396.358 68.887C417.657 75.5744 441.127 91.1753 447.597 113.929C456.651 145.771 432.839 173.513 411.826 193.835C390.857 214.113 361.746 243.991 361.746 272.834" stroke="#43AAFF" stroke-width="3" stroke-linecap="round"/>
<path d="M356.304 124.106C351.162 117.795 343.322 118.053 338.973 125.819C328.372 144.749 363.96 154.509 375.954 155.141C380.479 155.38 390.136 154.765 391.471 147.987C393.459 137.899 379.893 128.746 372.931 125.265C365.543 121.571 359.136 120.12 351.014 119.521C342.949 118.927 339.746 121.352 332.726 123.199" stroke="#43AAFF" stroke-width="3" stroke-linecap="round"/>
<path d="M34.4888 78.3119C40.0414 85.2336 46.0298 91.7744 51.6187 98.6663C54.543 102.272 57.4825 105.874 60.1837 109.65C62.9192 113.474 71.1776 122.968 66.5318 122.245C64.3285 121.902 62.9143 119.593 61.3929 117.963C56.1843 112.382 50.6428 105.05 48.0416 97.7594C44.9189 89.0072 49.9802 75.5346 61.2921 81.7379C66.0668 84.3563 66.8724 89.4379 67.4387 94.2327C67.9144 98.2605 68.8215 97.1868 72.8296 97.7594C78.0806 98.5096 87.4383 100.028 87.6924 107.332C87.9884 115.843 78.9623 119.16 73.4846 122.749" stroke="black" stroke-width="3" stroke-linecap="round"/>
<path d="M90.7153 81.0325C96.5519 87.4712 107.316 99.2698 113.387 106.224C115.073 108.154 116.768 110.082 118.325 112.118C119.076 113.1 116.202 110.799 115.352 109.901C110.784 105.076 104.363 95.4815 116.612 96.6509C122.507 97.2138 134.373 103.4 126.638 110.053C123.611 112.656 120.466 112.729 117.015 111.866" stroke="black" stroke-width="3" stroke-linecap="round"/>
<path d="M115.201 76.4982C126.579 84.3845 138.709 92.0459 148.554 101.891C149.388 102.725 152.488 105.518 150.569 105.518" stroke="black" stroke-width="3" stroke-linecap="round"/>
<path d="M63 173.087C63.4673 167.596 66.2441 160.064 73.278 161.096C84.1018 162.683 84.3837 174.44 83.6567 182.76C83.1993 187.994 99.9317 178.8 100.787 189.914C101.301 196.602 95.9902 203.501 90.6094 206.742C86.1338 209.438 85.8474 207.275 82.0445 206.641" stroke="black" stroke-width="3" stroke-linecap="round"/>
<path d="M130.109 184.876C128.848 185.198 119.952 186.269 119.126 189.814C118.076 194.316 126.919 197.393 130.008 196.363C133.678 195.14 133.067 189.556 132.628 186.791C132.348 185.024 131.676 180.639 130.411 181.904C129.303 183.011 131.191 184.953 131.822 186.388C135.805 195.44 140.742 204.574 142.906 214.299C144.989 223.662 144.543 233.573 133.737 236.619C131.18 237.339 128.388 237.454 125.776 236.971C112.369 234.495 125.448 234.316 114.692 229.313" stroke="black" stroke-width="3" stroke-linecap="round"/>
<path d="M145.526 194.852C150.18 191.153 157.156 185.664 156.308 178.729C155.379 171.134 146.413 179.675 146.433 183.868C146.483 194.32 160.164 197.957 168.097 199.487C173.254 200.481 173.639 200.55 173.639 196.665" stroke="black" stroke-width="3" stroke-linecap="round"/>
<path d="M189.056 173.994C185.259 175.35 179.603 176.487 177.166 180.442C173.371 186.601 179.387 192.849 184.32 195.356C188.617 197.539 193.401 198.199 198.125 198.479C199.802 198.579 201.505 198.647 203.163 198.379C213.328 196.732 200.213 198.342 205.38 195.759" stroke="black" stroke-width="3" stroke-linecap="round"/>
<path d="M209.914 166.738C212.625 173.123 215.424 179.11 219.89 184.523C222.615 187.826 232.198 198.503 237.977 195.104C241.496 193.034 233.564 187.773 233.09 187.496C225.316 182.947 220.513 185.067 212.635 185.783" stroke="black" stroke-width="3" stroke-linecap="round"/>
<path d="M368.221 258.781C360.311 248.973 349.396 244.318 336.984 242.356C309.385 237.995 278.877 244.351 253.047 254.246C240.527 259.043 228.228 265.101 218.182 274.198C199.796 290.848 191.653 311.806 192.084 336.47C192.423 355.823 194.95 380.077 205.889 396.778C212.411 406.734 220.158 410.397 230.778 415.268C246.049 422.273 259.392 426.619 275.971 430.181C317.013 438.999 353.881 431.889 390.086 411.489C416.324 396.706 438.312 373.319 437.043 341.206C436.021 315.376 424.624 290.576 407.116 271.931C392.591 256.463 373.802 248.034 355.524 237.923" stroke="black" stroke-width="3" stroke-linecap="round"/>
<path d="M308.366 243.364C305.295 250.53 304.156 256.931 305.041 264.827C305.612 269.919 307.132 277.041 308.971 281.856C311.222 287.75 314.543 290.208 318.292 294.754C323.587 301.175 311.982 323.669 321.869 323.875C328.106 324.005 334.093 325.942 340.309 326.091C351.74 326.366 360.021 318.998 370.437 315.713C379.316 312.912 389.273 310.782 398.55 309.919C410.406 308.816 422.72 311.555 434.423 313.194" stroke="black" stroke-width="3" stroke-linecap="round"/>
<path d="M312.901 328.611C306.012 342.127 301.034 352.056 308.618 366.045C316.797 381.129 319.838 398.879 328.771 413.555C332.71 420.026 342.326 411.473 345.246 407.711C350.236 401.281 347.691 392.67 352.602 386.5C355.691 382.619 363.496 381.51 363.384 375.567C363.195 365.571 355.786 357.79 361.671 347.756C364.071 343.663 371.834 340.412 367.918 334.656C365.926 331.729 362.212 330.176 359.454 328.157C356.798 326.213 356.425 324.613 354.617 322.262" stroke="black" stroke-width="3" stroke-linecap="round"/>
<path d="M241.257 263.315C233.931 265.605 229.087 271.386 225.387 277.977C220.285 287.064 221.084 293.9 228.561 301.001C234.032 306.196 241.138 310.574 244.834 317.375C246.336 320.138 245.769 322.668 248.714 324.58C252.005 326.716 253.174 327.204 249.419 330.576C243.012 336.329 234.997 338.34 227.352 341.811C220.543 344.902 217.55 351.454 212.842 356.875C207.425 363.113 202.415 369.03 197.727 375.768" stroke="black" stroke-width="3" stroke-linecap="round"/>
<path d="M204.982 383.93C212.575 379.988 219.596 376.382 228.36 379.698C232.023 381.084 235.195 383.526 238.637 385.341C243.375 387.838 248.107 387.887 253.148 389.271C263.598 392.14 263.274 399.866 263.274 408.769C263.274 419.779 269.837 426.115 276.626 433.809" stroke="black" stroke-width="3" stroke-linecap="round"/>
</svg>
