<svg width="1125" height="449" viewBox="0 0 1125 449" fill="none" xmlns="http://www.w3.org/2000/svg">
<path d="M553.882 208.937C555.841 204.867 551.342 203.99 547.648 203.288C532.236 200.361 512.981 202.601 498.513 208.201C491.802 210.799 484.973 213.899 479.71 218.796C467.447 230.207 466.463 240.74 472.973 255.895C482.029 276.978 503.755 291.335 526.264 293.696C541.129 295.256 560.751 290.905 570.238 278.355C579.453 266.166 580.147 246.468 573.991 232.8C566.208 215.52 548.402 208.92 531.225 205.528C525.727 204.442 520.131 203.785 514.533 203.522C488.435 202.295 513.145 204.924 491.139 205.929" stroke="black" stroke-width="3" stroke-linecap="round"/>
<path d="M521.703 230.079C521.025 229.384 518.751 227.236 518.115 229.432C517.187 232.636 522.727 235 525.224 235C529.29 235 528.266 231.706 526.105 229.853C522.635 226.876 519.307 226.242 515 226" stroke="black" stroke-width="3" stroke-linecap="round"/>
<path d="M491 238.849C506.121 243.759 521.625 246.636 537.465 244.002C541.423 243.343 544.471 241.914 547.115 238.849C548.215 237.575 550.461 235.633 549.916 234" stroke="black" stroke-width="3" stroke-linecap="round"/>
<path d="M491.8 240C490.505 241.288 487.944 242.871 489.472 244.899C492.359 248.729 498.771 249.975 503.111 250.923C507.295 251.836 511.559 251.726 515.751 252.511C516.942 252.734 519.407 253.49 516.949 252.511" stroke="black" stroke-width="3" stroke-linecap="round"/>
<path d="M515.558 254C518.078 258.93 518.543 264.622 517.432 269.973C516.742 273.293 514.474 275.922 513.159 278.975C512.527 280.442 511.271 283.267 512.559 284.762C514.897 287.476 514.072 285.156 512.859 283.24" stroke="black" stroke-width="3" stroke-linecap="round"/>
<path d="M528 266C525.892 277.612 521.79 286.619 509 284.755" stroke="black" stroke-width="3" stroke-linecap="round"/>
<path d="M526 269C529.652 273.804 530.847 278.883 536.179 282.508C538.006 283.749 540.303 284.625 542.507 284.982C544.537 285.311 539.641 281.061 539.618 281.037" stroke="black" stroke-width="3" stroke-linecap="round"/>
<path d="M541 285C540.859 278.384 538.311 271.617 537.235 265.062C536.823 262.559 537.833 256.997 536 256" stroke="black" stroke-width="3" stroke-linecap="round"/>
<path d="M534 258C540.39 255.982 549.415 252.871 550.942 245.496C551.327 243.633 549.711 234.503 548.638 235.021" stroke="black" stroke-width="3" stroke-linecap="round"/>
<path d="M486.481 197.473C480.806 197.605 476.112 201.204 471.421 204.122C465.98 207.506 459.607 211.757 456.834 217.791C454.201 223.52 452.135 230.25 452.005 236.557C451.869 243.157 454.338 249.545 456.361 255.728C458.798 263.175 459.638 271.115 462.304 278.443C465.197 286.394 470.792 290.052 477.836 294.07C486.199 298.84 494.315 301.824 503.938 303.082C519.498 305.115 536.101 305.643 551.717 304.128C564.077 302.929 575.136 298.663 585.314 291.572C597.602 283.012 601.35 264.952 601.961 250.733C602.789 231.433 590.357 215.663 577.649 202.468C568.962 193.448 556.393 188.778 544.254 186.503C530.695 183.962 515.061 182.795 501.473 185.727C494.225 187.291 485.263 189.654 478.816 193.49C477.594 194.217 476.003 196.258 474.933 196.258" stroke="black" stroke-width="3" stroke-linecap="round"/>
<path d="M498.259 145C493.179 149.171 488.536 153.879 484.086 158.697C482.465 160.452 474.326 166.874 479.96 167.52C486.91 168.318 493.934 168.664 500.921 168.969C506.029 169.192 503.954 168.183 500.655 166.928" stroke="black" stroke-width="3" stroke-linecap="round"/>
<path d="M494 143C497.799 150.036 500.915 157.862 503.221 165.518C504.567 169.991 504.566 172.374 499.97 171.952" stroke="black" stroke-width="3" stroke-linecap="round"/>
<path d="M502 147C506.547 150.503 510.378 154.958 511.744 160.442C512.974 165.382 509.456 161.904 507.89 160.442" stroke="black" stroke-width="3" stroke-linecap="round"/>
<path d="M499 135C508.366 137.493 515.895 147.904 519.864 156.304C521.787 160.374 524.516 166.992 521.963 171.435C520.225 174.46 518.917 172.325 517.305 171.435" stroke="black" stroke-width="3" stroke-linecap="round"/>
<path d="M500 127C504.142 128.592 507.645 130.869 511.191 133.495C518.413 138.844 526.019 144.744 530.844 152.345C533.657 156.776 535.841 162.222 535.99 167.478C536.055 169.755 535.811 171.444 534.747 173.437C533.068 176.583 533.598 174.007 532.329 174.007" stroke="black" stroke-width="3" stroke-linecap="round"/>
<path d="M248.679 214.965C222.187 218.497 196.965 232.135 173.714 244.553C169.674 246.711 114.963 272.205 135.706 280.691C166.757 293.393 200.829 300.882 232.423 312.501C246.606 317.717 260.573 323.53 274.876 328.406C286.644 332.418 273.392 323.882 271.835 322.325" stroke="black" stroke-width="3" stroke-linecap="round"/>
<path d="M2.38281 17.0856C20.7489 13.0451 38.9092 6.01894 58.0509 9.36692C108.406 18.1744 152.518 61.1623 180.146 101.991C196.685 126.431 205.673 154.696 216.869 181.751C220.226 189.864 223.886 197.98 226.693 206.31C229.543 214.772 226.64 211.516 221.313 210.754" stroke="black" stroke-width="3" stroke-linecap="round"/>
<path d="M76.0612 97.0793C69.9413 102.457 65.1037 107.612 71.1494 115.791C76.3929 122.886 93.7029 136.688 103.427 129.591C113.102 122.531 93.9743 107.978 89.6274 105.266C77.7459 97.851 74.5203 102.238 63.4307 105.5" stroke="black" stroke-width="3" stroke-linecap="round"/>
<path d="M273.94 334.955C252.466 359.77 227.982 378.187 197.923 391.793C167.154 405.72 127.394 424.341 95.0071 427.579" stroke="black" stroke-width="3" stroke-linecap="round"/>
<path d="M244.469 257.067C273.264 242.669 300.721 226.594 328.205 209.819C342.644 201.006 357.026 191.438 372.88 185.493" stroke="#43AAFF" stroke-width="3" stroke-linecap="round"/>
<path d="M267.625 267.592C303.792 256.658 341.581 250.653 377.09 238.121" stroke="#43AAFF" stroke-width="3" stroke-linecap="round"/>
<path d="M265.52 294.958C303.232 298.73 340.252 307.637 377.09 316.009" stroke="#43AAFF" stroke-width="3" stroke-linecap="round"/>
<path d="M425.164 19.1498C428.92 63.6802 435.773 108.097 436.344 152.839C437.203 220.05 418.816 285.931 422.132 353.136C423.343 377.665 427.584 405.137 441.177 426.281C443.414 429.762 448.851 440.178 448.851 436.04C448.851 429.48 461.317 431.729 467.801 430.734C512.514 423.873 557.595 420.712 602.721 418.227C623.643 417.075 644.874 414.51 665.823 416.143C673.708 416.757 668.023 401.298 667.339 396.056" stroke="black" stroke-width="3" stroke-linecap="round"/>
<path d="M616.176 2.09521C617.479 42.0589 623.725 81.7133 625.651 121.667C629.009 191.346 621.022 260.36 619.018 329.922C618.115 361.29 617.29 393.505 619.018 424.86C619.252 429.1 618.846 442.814 623.756 446.273C628.656 449.725 622.869 434.243 621.292 428.46" stroke="black" stroke-width="3" stroke-linecap="round"/>
<path d="M421.753 22.5608C473.51 17.3851 526.049 17.6458 577.992 16.6864C601.141 16.2589 624.295 16.1523 647.443 15.7389C653.955 15.6226 651.941 15.0175 648.579 12.328" stroke="black" stroke-width="3" stroke-linecap="round"/>
<path d="M670.75 242.565C713.964 232.709 759.706 234.356 803.776 232.332C807.71 232.152 840.699 234.481 822.536 227.216" stroke="black" stroke-width="3" stroke-linecap="round"/>
<path d="M767.962 205.045C777.963 207.728 787.844 210.596 797.618 214.046C812.106 219.159 836.335 225.578 845.56 239.154C856.337 255.014 816.427 260.591 810.598 259.62" stroke="black" stroke-width="3" stroke-linecap="round"/>
<path d="M887.344 141.943C894.2 124.23 906.821 115.216 925.338 122.899C937.888 128.105 948.735 134.105 962.763 130.952C971.257 129.043 978.315 122.751 987.303 124.794C997.852 127.191 1007.23 130.445 1018.29 130.763C1033.48 131.2 1047.11 126.516 1061.87 124.32C1073.75 122.551 1086.3 124.383 1098.06 126.215C1110.9 128.214 1103.22 128.935 1097.12 131.71" stroke="#43AAFF" stroke-width="3" stroke-linecap="round"/>
<path d="M882.227 174.347C894.738 171.054 909.356 164.14 922.495 166.104C933.516 167.75 943.314 173.84 954.425 175.673C968.344 177.969 981.815 175.88 995.735 175.768C1013.37 175.626 1029.63 183.274 1047.28 182.305C1064.99 181.333 1087.73 175.527 1102.23 177.757" stroke="#43AAFF" stroke-width="3" stroke-linecap="round"/>
<path d="M880.522 237.449C897.917 228.114 915.53 223.151 935.381 227.121C941.317 228.308 951.8 232.108 957.741 233.374C972.033 236.42 986.027 234.975 1000.47 234.417C1026.48 233.411 1051.09 240.473 1076.74 240.101C1088.1 239.937 1102.28 237.449 1112.46 237.449" stroke="#43AAFF" stroke-width="3" stroke-linecap="round"/>
<path d="M865.173 324.427C871.786 314.791 879.671 305.739 889.049 298.656C902.404 288.568 911.148 289.601 924.674 298.277C936.044 305.569 947.89 314.804 962.195 309.267C969.512 306.435 979.54 290.18 987.871 297.519C994.189 303.084 996.699 313.008 1006.54 313.72C1017.89 314.543 1027.39 305.627 1038.85 306.046C1051.17 306.497 1061.33 313.077 1074.28 312.773C1090.44 312.394 1106.66 310.414 1122.7 309.078" stroke="#43AAFF" stroke-width="3" stroke-linecap="round"/>
<path d="M461.554 21.2694C465.466 30.2963 469.366 39.3518 473.681 48.1969C476.114 53.1846 480.586 50.1364 485.186 49.5028C505.357 46.7247 526.459 50.6286 546.628 52.3635C552.741 52.8894 562.737 54.5751 568.02 51.2441C581.176 42.9503 591.889 31.2695 602.597 20.15" stroke="black" stroke-width="3" stroke-linecap="round"/>
<path d="M477.226 413.055C496.137 410.893 515.414 412.628 534.19 410.194C546.497 408.599 558.832 407.458 571.254 407.458" stroke="black" stroke-width="3" stroke-linecap="round"/>
</svg>
